<svg width="70" height="60" viewBox="0 0 70 60" fill="none" xmlns="http://www.w3.org/2000/svg">
<g id="age_ic" opacity="0.1">
<g id="Age">
<g id="cake">
<path id="Vector" d="M64.4115 40.0833V43.1666H61.729C59.4473 43.1666 57.5973 45.0166 57.5973 47.3291V48.2541C57.5973 50.5666 55.7473 52.4166 53.4348 52.4166C51.1532 52.4166 49.3032 50.5666 49.3032 48.2541V47.3291C49.3032 45.0166 47.4223 43.1666 45.1407 43.1666C42.859 43.1666 41.009 45.0166 41.009 47.3291V48.2541C41.009 50.5666 39.1282 52.4166 36.8465 52.4166C34.5648 52.4166 32.684 50.5666 32.684 48.2541V47.3291C32.684 45.0166 30.834 43.1666 28.5523 43.1666C26.2707 43.1666 24.3898 45.0166 24.3898 47.3291V48.2541C24.3898 50.5666 22.5398 52.4166 20.2582 52.4166C17.9457 52.4166 16.0957 50.5666 16.0957 48.2541V47.2674C16.0957 44.9858 14.2765 43.1358 12.0257 43.1049H9.58984V40.0833C9.58984 35.8283 12.7965 32.2208 17.144 31.1724C18.0073 30.9566 18.9015 30.8333 19.8573 30.8333H54.144C55.0998 30.8333 55.994 30.9566 56.8573 31.1724C61.2048 32.2208 64.4115 35.8283 64.4115 40.0833Z" fill="#13013C"/>
<path id="Vector_2" d="M56.8559 22.1076V26.4551C55.9617 26.2701 55.0676 26.2084 54.1426 26.2084H19.8559C18.9309 26.2084 18.0367 26.3009 17.1426 26.4859V22.1076C17.1426 18.4076 20.4726 15.4167 24.6042 15.4167H49.3942C53.5259 15.4167 56.8559 18.4076 56.8559 22.1076Z" fill="#13013C"/>
<path id="Vector_3" d="M26.9785 10.9458V15.4475H24.6043C23.8027 15.4475 23.0627 15.54 22.3535 15.725V10.9458C22.3535 9.86665 23.4018 8.94165 24.666 8.94165C25.9302 8.94165 26.9785 9.86665 26.9785 10.9458Z" fill="#13013C"/>
<path id="Vector_4" d="M51.6465 10.2676V15.7251C50.9373 15.5092 50.1973 15.4167 49.3957 15.4167H47.0215V10.2676C47.0215 9.00341 48.0698 7.95508 49.334 7.95508C50.5982 7.95508 51.6465 9.00341 51.6465 10.2676Z" fill="#13013C"/>
<path id="Vector_5" d="M39.3125 8.69508V15.4167H34.6875V8.69508C34.6875 7.30758 35.7358 6.16675 37 6.16675C38.2642 6.16675 39.3125 7.30758 39.3125 8.69508Z" fill="#13013C"/>
<path id="Vector_6" d="M67.8327 65.5208C67.8327 66.785 66.7844 67.8333 65.5202 67.8333H8.47852C7.21435 67.8333 6.16602 66.785 6.16602 65.5208C6.16602 64.2566 7.21435 63.2083 8.47852 63.2083H9.58852V47.73H11.4693V47.9458C11.4693 52.0775 14.1827 55.9008 18.2218 56.795C21.3668 57.535 24.3577 56.5175 26.3927 54.5133C27.5644 53.3417 29.476 53.3108 30.6477 54.4825C32.251 56.055 34.4402 57.0416 36.8452 57.0416C39.2502 57.0416 41.4394 56.0858 43.0427 54.4825C44.2144 53.3416 46.0952 53.3417 47.2977 54.5133C49.3019 56.5175 52.2927 57.535 55.4685 56.795C59.5077 55.9008 62.221 52.0775 62.221 47.9458V47.7916H64.4102V63.2083H65.5202C66.7844 63.2083 67.8327 64.2566 67.8327 65.5208Z" fill="#13013C"/>
</g>
</g>
</g>
</svg>
