<svg width="123" height="44" viewBox="0 0 123 44" fill="none" xmlns="http://www.w3.org/2000/svg">
<g id="Group 40536">
<g id="Group 3328">
<g id="social01">
<path id="Vector" d="M9.55565 23.1547L10.0859 19.7619H6.77043V17.5602C6.77043 16.632 7.23358 15.7272 8.71848 15.7272H10.2258V12.8386C10.2258 12.8386 8.85794 12.6094 7.55017 12.6094C4.81977 12.6094 3.03506 14.2344 3.03506 17.1761V19.7619H0V23.1547H3.03506V31.3566H6.77043V23.1547H9.55565Z" fill="#3B2273"/>
</g>
<g id="social03">
<rect id="Rectangle 7" x="35.2266" y="0.333984" width="43.1618" height="43.1618" rx="21.5809" fill="#3B2273"/>
<path id="Vector_2" d="M64.3319 17.8173C64.3438 17.999 64.3438 18.1807 64.3438 18.3624C64.3438 23.9034 60.4778 30.2881 53.4119 30.2881C51.235 30.2881 49.2128 29.6003 47.5117 28.4065C47.821 28.4454 48.1184 28.4583 48.4396 28.4583C50.2357 28.4583 51.8892 27.7965 53.2096 26.6676C51.5205 26.6286 50.1049 25.4218 49.6172 23.7607C49.8551 23.7996 50.093 23.8256 50.3428 23.8256C50.6878 23.8256 51.0328 23.7737 51.3539 23.6829C49.5934 23.2935 48.273 21.6066 48.273 19.5692V19.5173C48.7845 19.8288 49.3793 20.0234 50.0097 20.0493C48.9748 19.2967 48.2968 18.012 48.2968 16.5586C48.2968 15.78 48.4871 15.0662 48.8202 14.4433C50.7116 16.9868 53.5546 18.6478 56.7425 18.8295C56.6831 18.5181 56.6474 18.1937 56.6474 17.8693C56.6474 15.5594 58.3603 13.6777 60.4896 13.6777C61.5959 13.6777 62.5951 14.1838 63.2969 15.0014C64.1653 14.8197 64.9979 14.4693 65.7355 13.9892C65.4499 14.9625 64.8433 15.78 64.0463 16.299C64.8195 16.2082 65.5689 15.9746 66.2589 15.6502C65.7355 16.4807 65.0813 17.2204 64.3319 17.8173Z" fill="white"/>
</g>
<g id="social05">
<path id="Vector_3" d="M112.762 17.1764C110.102 17.1764 107.957 19.3224 107.957 21.983C107.957 24.6435 110.102 26.7895 112.762 26.7895C115.422 26.7895 117.568 24.6435 117.568 21.983C117.568 19.3224 115.422 17.1764 112.762 17.1764ZM112.762 25.1079C111.043 25.1079 109.638 23.7065 109.638 21.983C109.638 20.2595 111.039 18.8581 112.762 18.8581C114.486 18.8581 115.887 20.2595 115.887 21.983C115.887 23.7065 114.481 25.1079 112.762 25.1079ZM118.885 16.9798C118.885 17.6031 118.383 18.1009 117.764 18.1009C117.141 18.1009 116.644 17.5989 116.644 16.9798C116.644 16.3607 117.145 15.8587 117.764 15.8587C118.383 15.8587 118.885 16.3607 118.885 16.9798ZM122.068 18.1177C121.997 16.6159 121.654 15.2856 120.554 14.1896C119.458 13.0936 118.128 12.7506 116.627 12.6753C115.079 12.5874 110.441 12.5874 108.894 12.6753C107.397 12.7464 106.067 13.0894 104.967 14.1854C103.867 15.2814 103.528 16.6117 103.453 18.1135C103.365 19.6613 103.365 24.3005 103.453 25.8483C103.524 27.3501 103.867 28.6804 104.967 29.7764C106.067 30.8724 107.392 31.2154 108.894 31.2907C110.441 31.3785 115.079 31.3785 116.627 31.2907C118.128 31.2196 119.458 30.8766 120.554 29.7764C121.65 28.6804 121.993 27.3501 122.068 25.8483C122.156 24.3005 122.156 19.6655 122.068 18.1177ZM120.069 27.509C119.743 28.329 119.111 28.9606 118.287 29.2911C117.053 29.7806 114.126 29.6676 112.762 29.6676C111.399 29.6676 108.467 29.7764 107.238 29.2911C106.418 28.9648 105.786 28.3331 105.456 27.509C104.967 26.275 105.08 23.3467 105.08 21.983C105.08 20.6192 104.971 17.6868 105.456 16.4569C105.782 15.637 106.414 15.0053 107.238 14.6749C108.471 14.1854 111.399 14.2984 112.762 14.2984C114.126 14.2984 117.058 14.1896 118.287 14.6749C119.107 15.0011 119.739 15.6328 120.069 16.4569C120.558 17.691 120.445 20.6192 120.445 21.983C120.445 23.3467 120.558 26.2792 120.069 27.509Z" fill="#3B2273"/>
</g>
</g>
</g>
</svg>
