<svg width="115" height="96" viewBox="0 0 115 96" fill="none" xmlns="http://www.w3.org/2000/svg">
<g id="Logo">
<g id="Icon">
<path id="Vector" d="M92.4795 0.00140106C92.2973 -0.00125174 92.1143 0.000516872 91.9322 0.00140106C88.4207 0.0456129 84.79 0.912168 81.2168 2.6284C75.6416 5.30677 69.7226 10.4919 66.0642 15.9044C64.5893 18.0867 63.7768 19.6766 62.9243 22.0498C61.5626 25.8424 61.399 27.2651 61.3583 35.6459C61.3229 42.8632 61.2805 43.5572 60.7499 45.4186C59.4315 50.0467 57.8425 52.2927 50.9939 59.2173L45.4418 64.8305L49.375 68.7637L54.8519 63.2734C57.8646 60.2536 61.0743 57.2631 61.9852 56.6274C64.2799 55.0261 65.6795 54.3488 68.2051 53.6165C71.2239 52.742 74.6398 52.4537 79.0486 52.7022C89.5728 53.2955 96.0137 50.9399 103.342 43.8173C108.688 38.6215 111.933 33.4564 113.508 27.6381C114.247 24.9102 114.293 19.3146 113.598 16.7956C112.478 12.7404 110.567 9.428 107.665 6.51623C103.44 2.27637 98.1278 0.0674785 92.4793 0.000247396L92.4795 0.00140106ZM92.4247 2.66642C95.6681 2.66731 96.1756 2.73274 98.0291 3.37912C99.1503 3.76997 100.869 4.56049 101.85 5.13612C103.912 6.34578 107.287 9.62023 108.7 11.7829C114.318 20.3779 111.822 31.5865 102.105 41.3963C97.7029 45.8397 93.6052 48.2378 88.6783 49.2529C85.8594 49.8338 80.3009 49.771 77.6888 49.1299C70.3258 47.3208 65.4093 41.4645 64.5145 33.4391C63.8186 27.1963 65.5942 20.6998 69.3461 15.7611C72.4446 11.6829 78.3132 6.87349 82.6981 4.81853C86.3544 3.10486 88.3458 2.66451 92.4249 2.66716L92.4247 2.66642ZM93.4831 4.95228L93.3363 6.60759L93.1887 8.26291L90.7729 8.33718C88.0069 8.42207 87.7416 8.26379 87.6701 6.49442C87.6329 5.57656 87.6117 5.61813 87.4791 6.86138L87.3296 8.26203L84.9138 8.3363C82.8341 8.39997 82.4512 8.34603 82.1612 7.95431C81.8411 7.52102 81.811 7.52102 81.5705 7.94458C81.4317 8.18951 81.0656 8.40173 80.757 8.41588C80.2397 8.43975 80.2459 8.45479 80.8331 8.61837C81.4626 8.79345 81.4697 8.82705 81.4697 11.5867V14.3774H76.3746L76.227 12.8494C76.0979 11.516 76.0731 11.4611 76.036 12.4206C75.9679 14.1714 75.6743 14.4994 74.1375 14.541L72.8094 14.5764L74.1313 14.7373C74.8581 14.8257 75.5266 14.9716 75.6159 15.0609C75.9299 15.3748 76.0342 19.5573 75.7415 20.1037C75.478 20.5962 75.2702 20.6307 72.9871 20.5635L70.5174 20.491L70.3644 19.345C70.2654 18.6031 70.1982 18.4519 70.1734 18.9162C70.1213 19.8888 69.6995 20.6148 69.1716 20.6387C68.8223 20.6546 68.8108 20.6864 69.1168 20.7952C69.894 21.0729 70.1354 21.7413 70.1354 23.6132C70.1354 26.1961 69.9515 26.4659 68.1529 26.5241L66.6966 26.5718L68.0972 26.662C69.9046 26.7788 70.1354 27.0971 70.1354 29.4722C70.1354 32.1275 69.9833 32.3255 67.8974 32.3848L66.1864 32.4335L67.8417 32.521C69.008 32.5829 69.5916 32.7332 69.8162 33.0303C70.1823 33.5158 70.2495 37.1095 69.9029 37.6575C69.7791 37.8521 69.237 38.097 68.6968 38.2013L67.7152 38.3914L68.6614 38.4206C69.8366 38.4569 70.1186 38.9211 70.1805 40.9168C70.2256 42.3767 70.2283 42.3705 70.3715 40.4879L70.5165 38.5771L72.9862 38.5045C75.2931 38.4365 75.4753 38.4683 75.7504 38.9812C76.0767 39.5904 75.9989 43.3688 75.6531 43.7154C75.5373 43.8312 74.6778 43.9948 73.7431 44.078L72.0445 44.2292L73.7555 44.269C75.5841 44.3114 75.9493 44.5714 76.0298 45.8845C76.0502 46.209 76.1359 46.0162 76.2208 45.4556L76.3756 44.437H81.4706L81.5821 46.0923C81.6537 47.156 81.7227 47.4292 81.7757 46.8563C81.8208 46.3655 81.9207 45.5882 81.9959 45.1284L82.1338 44.292L87.3297 44.437L87.4773 45.9649C87.6197 47.4337 87.6276 47.4461 87.6683 46.3036C87.7408 44.2849 87.7063 44.3088 90.5493 44.3088C92.9332 44.3088 93.0898 44.3415 93.2879 44.8773L93.4983 45.4468L93.6787 44.8773C93.7778 44.5643 94.0528 44.3026 94.288 44.2946C94.6328 44.2849 94.6045 44.2026 94.1438 43.8817C93.6239 43.5191 93.5709 43.2777 93.5744 41.2846C93.5762 40.0758 93.6717 38.9387 93.7866 38.7583C93.9387 38.5178 94.6717 38.4497 96.5207 38.5036L99.0469 38.577L99.1946 40.105C99.337 41.5737 99.3449 41.587 99.3856 40.4437C99.4528 38.5691 99.5536 38.4541 101.175 38.4028L102.613 38.3569L101.346 38.2587C100.649 38.2048 99.9329 38.0394 99.7543 37.8917C99.4157 37.6105 99.2821 33.7791 99.5837 32.9929C99.7101 32.664 100.193 32.5897 102.228 32.5897C104.867 32.5897 105.143 32.702 105.356 33.863C105.454 34.3962 105.479 34.3635 105.508 33.6641C105.529 33.1477 105.703 32.7666 105.961 32.6675C106.346 32.5199 106.346 32.4827 105.951 32.1945C105.591 31.9318 105.536 31.4827 105.597 29.3701L105.67 26.8579L108.726 26.5767L105.67 26.3485V20.9988L109.237 20.7689L105.67 20.4895L105.597 17.8358C105.518 14.9487 105.583 14.7975 106.944 14.7259C107.597 14.6914 107.56 14.6631 106.689 14.5305L105.671 14.3758L105.379 10.8087L105.334 12.3499C105.309 13.1979 105.152 14.0282 104.983 14.1971C104.787 14.3925 103.789 14.5031 102.208 14.5031C100.192 14.5031 99.711 14.4288 99.5845 14.0999C99.2962 13.3491 99.4156 9.26919 99.7357 8.95001C99.9037 8.78201 100.735 8.62285 101.583 8.59632L103.124 8.54857L101.604 8.45484C99.871 8.34784 99.4439 8.09496 99.397 7.14881C99.3696 6.60322 99.3342 6.64478 99.206 7.37164L99.0486 8.26296L96.6666 8.33636C95.1288 8.38411 94.158 8.30452 93.928 8.11353C93.7113 7.93402 93.5539 7.25403 93.5274 6.38394L93.4832 4.95059L93.4831 4.95228ZM83.6592 8.67761C83.9908 8.67496 84.4011 8.6838 84.914 8.69972L87.3298 8.77399V14.3784L84.8601 14.4509C82.6221 14.5172 82.3649 14.4765 82.1215 14.0221C81.7395 13.3076 81.7793 9.60879 82.1755 9.06664C82.3806 8.78545 82.6645 8.6847 83.6592 8.67761ZM89.5183 8.67761C89.8499 8.67496 90.2602 8.6838 90.7731 8.69972L93.1889 8.77399V14.3784L90.7642 14.45C89.0965 14.4995 88.2423 14.4244 88.0257 14.2077C87.5959 13.778 87.6021 9.6573 88.0336 9.06671C88.2388 8.78552 88.5226 8.68472 89.5174 8.67763L89.5183 8.67761ZM95.6223 8.68734C95.9327 8.6838 96.282 8.68734 96.6666 8.69972L99.0487 8.77311V14.3775L96.4685 14.4491C94.2845 14.5102 93.8635 14.458 93.7299 14.1096C93.6433 13.8832 93.5717 12.6895 93.5717 11.4577C93.5717 9.84836 93.6716 9.13381 93.928 8.92079C94.1004 8.77755 94.6902 8.69708 95.6222 8.68646L95.6223 8.68734ZM96.4146 14.7472C97.5659 14.7587 98.7075 14.8843 98.8994 15.115C99.0913 15.3467 99.1691 16.3494 99.1223 17.9809L99.0489 20.4904L96.6243 20.562C94.9566 20.6115 94.1023 20.5363 93.8857 20.3197C93.463 19.897 93.4559 15.4856 93.8777 15.0637C94.1041 14.8373 95.2642 14.7339 96.4155 14.7454L96.4146 14.7472ZM90.4919 14.7596C92.1101 14.7596 92.8271 14.8595 93.0395 15.115C93.2313 15.3467 93.3092 16.3494 93.2623 17.9809L93.1889 20.4904L90.7192 20.5629C88.4812 20.6292 88.224 20.5885 87.9806 20.134C87.6349 19.4876 87.6313 15.8948 87.9753 15.2513C88.2052 14.8215 88.5253 14.7587 90.4919 14.7587L90.4919 14.7596ZM102.401 14.7596C105.231 14.7596 105.289 14.817 105.289 17.689C105.289 20.5609 105.231 20.6184 102.401 20.6184C100.905 20.6184 99.9294 20.5061 99.7359 20.3125C99.5431 20.1197 99.4299 19.1523 99.4299 17.6889C99.4299 16.2254 99.5422 15.2581 99.7359 15.0653C99.9295 14.8716 100.906 14.7593 102.401 14.7593V14.7596ZM84.6 14.7631C85.8212 14.7658 86.9671 14.8604 87.1476 14.9744C87.389 15.1274 87.4562 15.8843 87.4022 17.836L87.3297 20.4897L84.8601 20.5622C82.622 20.6285 82.3648 20.5878 82.1215 20.1333C81.7757 19.4869 81.7722 15.8941 82.1161 15.2506C82.346 14.8208 82.6635 14.758 84.6001 14.7616L84.6 14.7631ZM79.0513 14.7684C80.0885 14.7817 81.0992 14.8542 81.2893 14.9753C81.5307 15.1283 81.5979 15.8852 81.544 17.8368L81.4715 20.4905L79.0389 20.5622C77.7011 20.602 76.5258 20.5542 76.4278 20.4561C76.3297 20.3579 76.2492 19.1058 76.2492 17.6724C76.2492 15.5317 76.3208 15.04 76.6524 14.9128C76.9504 14.7987 78.0141 14.7536 79.0514 14.7669L79.0513 14.7684ZM102.401 20.8733C105.216 20.8733 105.289 20.9441 105.289 23.6755C105.289 26.407 105.217 26.4777 102.401 26.4777C100.905 26.4777 99.9296 26.3654 99.7361 26.1718C99.546 25.9817 99.4301 25.0399 99.4301 23.6756C99.4301 22.3113 99.5451 21.3694 99.7361 21.1795C99.9297 20.9858 100.906 20.8733 102.401 20.8733ZM83.6595 20.9051C83.9911 20.9025 84.4014 20.9113 84.9142 20.9273L87.33 21.0015V26.3513L84.8603 26.4238C82.6223 26.4901 82.3651 26.4494 82.1218 25.9949C81.7415 25.284 81.7804 21.8345 82.1757 21.2951C82.3808 21.0139 82.6647 20.9131 83.6595 20.906V20.9051ZM89.5185 20.9051C89.8501 20.9025 90.2604 20.9113 90.7733 20.9273L93.1891 21.0015V26.3513L90.7194 26.4238C88.4814 26.4901 88.2242 26.4494 87.9808 25.9949C87.6006 25.284 87.6395 21.8345 88.0348 21.2951C88.2399 21.0139 88.5238 20.9131 89.5185 20.906V20.9051ZM73.9691 20.906C75.9233 20.8901 75.9348 21.2093 75.9348 23.6754C75.9348 26.4563 75.9127 26.4776 73.0663 26.4776C71.2792 26.4776 70.5957 26.3874 70.5011 26.1398C70.4295 25.9541 70.4047 24.7215 70.4454 23.4012L70.5197 21.0006L73.0079 20.9272C73.3722 20.9175 73.6905 20.9078 73.97 20.9051L73.9691 20.906ZM95.6225 20.9149C95.9329 20.9113 96.2822 20.9149 96.6668 20.9273L99.0489 21.0006L99.1223 23.5269C99.1762 25.3768 99.1081 26.1089 98.8676 26.261C98.3424 26.5943 94.2271 26.5201 93.8778 26.1717C93.4242 25.7181 93.4666 21.5329 93.9282 21.149C94.1007 21.0058 94.6905 20.9255 95.6225 20.9149ZM76.3777 21.0006H81.4728V26.3504L78.9845 26.4229C77.0693 26.4795 76.4653 26.4167 76.3637 26.1488C76.2903 25.9578 76.2637 24.7216 76.3044 23.4014L76.3787 21.0007L76.3777 21.0006ZM75.4917 26.7137L75.7649 27.4238C76.1593 28.4468 75.955 31.7902 75.4802 32.0908C75.0168 32.3835 71.1518 32.4073 70.7 32.1208C70.4594 31.9687 70.3913 31.2357 70.4453 29.3868L70.5187 26.8605L73.0051 26.788L75.4915 26.7146L75.4917 26.7137ZM102.402 26.7323C105.217 26.7323 105.29 26.803 105.29 29.5345C105.29 32.2658 105.218 32.3367 102.402 32.3367C100.906 32.3367 99.9307 32.2244 99.7372 32.0307C99.5471 31.8406 99.4312 30.8989 99.4312 29.5346C99.4312 28.1702 99.5462 27.2283 99.7372 27.0384C99.9308 26.8448 100.907 26.7323 102.402 26.7323ZM83.6606 26.7641C83.9922 26.7615 84.4025 26.7703 84.9153 26.7862L87.3311 26.8605L87.4045 29.3868C87.4585 31.2366 87.3904 31.9687 87.1499 32.1208C86.9695 32.2349 85.8164 32.3304 84.5865 32.333C82.4201 32.3366 82.344 32.3171 82.1025 31.6831C81.7435 30.7387 81.7939 27.6766 82.1768 27.153C82.382 26.8719 82.6658 26.7712 83.6606 26.7641ZM89.5196 26.7641C89.8512 26.7615 90.2615 26.7703 90.7744 26.7862L93.1902 26.8605L93.2636 29.3868C93.3175 31.2366 93.2494 31.9687 93.0089 32.1208C92.8285 32.2349 91.6817 32.3304 90.4605 32.333C88.524 32.3366 88.2065 32.2738 87.9765 31.844C87.5998 31.1402 87.6432 27.6891 88.0358 27.153C88.2409 26.8718 88.5249 26.7712 89.5196 26.7641ZM95.6236 26.7738C95.934 26.7703 96.2833 26.7738 96.668 26.7862L99.05 26.8596L99.1234 29.2417C99.1712 30.7794 99.0916 31.7503 98.9006 31.9803C98.5168 32.4419 94.3316 32.4852 93.8779 32.0316C93.4243 31.5779 93.4668 27.3928 93.9283 27.0089C94.1008 26.8657 94.6906 26.7852 95.6226 26.7746L95.6236 26.7738ZM76.3788 26.8596H81.4739L81.5473 29.3859C81.6012 31.2357 81.5331 31.9678 81.2926 32.1199C81.1122 32.234 80.0476 32.3277 78.9264 32.3277C77.8052 32.3277 76.7405 32.234 76.5602 32.1199C76.3196 31.9678 76.2516 31.2348 76.3055 29.3859L76.3788 26.8596ZM74.3565 32.6195C75.3937 32.6231 75.5476 32.7371 75.7536 33.1227C76.1825 33.9238 75.9756 37.6367 75.4848 37.947C75.0197 38.2415 71.1555 38.2671 70.701 37.9789C70.4605 37.8268 70.3924 37.0937 70.4463 35.2448L70.5197 32.7185L72.9894 32.646C73.5659 32.6292 74.0108 32.6186 74.3565 32.6195ZM83.4961 32.6195C83.8418 32.6186 84.2857 32.6284 84.8632 32.6461L87.3328 32.7186L87.4062 35.2448C87.4602 37.0947 87.3921 37.8268 87.1516 37.9789C86.6971 38.2671 82.8338 38.2415 82.3677 37.9471C81.877 37.6367 81.6701 33.9238 82.0989 33.1227C82.305 32.7381 82.4589 32.624 83.4961 32.6195ZM89.7654 32.6328C90.0757 32.6293 90.425 32.6328 90.8096 32.6452L93.1917 32.7186L93.2651 35.1006C93.3129 36.6383 93.2333 37.6092 93.0423 37.8392C92.601 38.3707 88.6555 38.3362 88.1152 37.7959C87.5749 37.2556 87.5395 33.3093 88.071 32.8679C88.2434 32.7246 88.8332 32.6442 89.7652 32.6335L89.7654 32.6328ZM95.6244 32.6328C95.9348 32.6293 96.2841 32.6328 96.6687 32.6452L99.0508 32.7186L99.1242 35.1006C99.1719 36.6383 99.0923 37.6092 98.9013 37.8392C98.4601 38.3707 94.5146 38.3362 93.9742 37.7959C93.434 37.2556 93.3986 33.3093 93.93 32.8679C94.1024 32.7246 94.6922 32.6442 95.6242 32.6335L95.6244 32.6328ZM76.3796 32.7186H81.4746L81.548 35.2448C81.602 37.0947 81.5339 37.8268 81.2934 37.9789C81.113 38.093 80.0484 38.1867 78.9272 38.1867C77.806 38.1867 76.7413 38.093 76.5609 37.9789C76.3204 37.8268 76.2523 37.0938 76.3063 35.2448L76.3796 32.7186ZM83.954 38.483C84.2352 38.4839 84.5544 38.4919 84.917 38.5033L87.3328 38.5776L87.4062 41.1039C87.4601 42.9537 87.392 43.6858 87.1515 43.838C86.9711 43.952 85.8826 44.0475 84.7321 44.0502C82.9052 44.0537 82.5745 43.983 82.1209 43.4966C81.7124 43.058 81.6019 43.0253 81.6019 43.3419C81.6019 43.5638 81.4206 43.8141 81.1987 43.899C80.6027 44.128 76.9409 44.0793 76.5609 43.8379C76.3204 43.6859 76.2523 42.9528 76.3062 41.1039L76.3796 38.5776H81.4747L81.7629 42.654L81.8098 40.9828C81.8699 38.8341 81.9849 38.4794 83.955 38.484L83.954 38.483ZM89.7654 38.491C90.0757 38.4874 90.425 38.491 90.8096 38.5033L93.1917 38.5767L93.2651 41.103C93.319 42.9529 93.251 43.6849 93.0104 43.8371C92.8301 43.9511 91.7451 44.0466 90.5992 44.0493C89.0411 44.0519 88.4151 43.952 88.1152 43.6531C87.575 43.1129 87.5396 39.1665 88.071 38.7251C88.2435 38.5819 88.8334 38.5016 89.7654 38.491ZM42.9186 66.6465L36.1416 73.0935H45.7826L47.2116 71.3206L42.9186 66.6465ZM32.8319 76.1504L29.3807 79.774L39.1747 79.9721L42.6259 76.3493L32.8319 76.1513V76.1504ZM25.9277 83.0281L22.3889 86.5943H32.8328L36.3716 83.0281H25.9277ZM19.4912 89.6511C19.0765 90.2436 18.2037 90.9174 18.1719 91.6699C18.1719 92.7814 20.9944 95.6331 22.4552 95.9992C22.4994 96.0115 22.7859 95.886 23.0919 95.7233C23.8063 95.3439 29.3797 90.1526 29.3797 89.8669L19.4901 89.6512L19.4912 89.6511Z" fill="#3B4650"/>
<path id="Vector_2" d="M21.6115 0.00114115C15.963 0.0683451 10.6513 2.27727 6.42637 6.51713C3.52524 9.42889 1.61335 12.7413 0.493959 16.7965C-0.201057 19.3157 -0.155083 24.9122 0.584152 27.639C2.15987 33.4582 5.4051 38.6224 10.7503 43.8182C18.0781 50.9408 24.5189 53.2973 35.0441 52.704C39.453 52.4555 42.8687 52.7429 45.8875 53.6183C46.7939 53.881 47.5534 54.1383 48.2626 54.4318L54.3595 48.3217C53.9661 47.4224 53.6451 46.4851 53.3418 45.4197C52.8112 43.5583 52.7688 42.8642 52.7334 35.647C52.6927 27.2662 52.5291 25.8441 51.1674 22.0509C50.3159 19.6777 49.5024 18.0867 48.0275 15.9055C44.3685 10.493 38.4501 5.30785 32.8749 2.62947C29.3026 0.913153 25.671 0.0466195 22.1595 0.00247788C21.9765 -0.000174919 21.7943 -0.000174919 21.6122 0.00247788L21.6115 0.00114115ZM21.6664 2.66617C25.7455 2.66351 27.7366 3.10475 31.3932 4.81754C35.7781 6.87252 41.6469 11.6819 44.7452 15.7601C48.497 20.6977 50.2736 27.1953 49.5768 33.4381C48.6819 41.4644 43.7646 47.3207 36.4015 49.129C33.7895 49.7709 28.231 49.8328 25.4121 49.2519C20.485 48.2367 16.3866 45.8387 11.9858 41.3953C2.26963 31.5855 -0.226525 20.3776 5.39101 11.782C6.80404 9.61908 10.1782 6.34551 12.2413 5.13512C13.222 4.55947 14.9419 3.76895 16.0622 3.37813C17.9156 2.73174 18.4232 2.6672 21.6666 2.66543L21.6664 2.66617ZM20.6079 4.95556L20.5637 6.38539C20.5372 7.2555 20.3798 7.93548 20.1632 8.11497C19.9333 8.30597 18.9623 8.38466 17.4246 8.3378L15.0425 8.26441L14.8851 7.37309C14.7569 6.64713 14.7215 6.60557 14.6941 7.15026C14.6464 8.09729 14.2201 8.35018 12.487 8.45628L10.967 8.55001L12.5083 8.59776C13.3563 8.62429 14.1866 8.78345 14.3555 8.95146C14.6747 9.27068 14.7949 13.3507 14.5067 14.1013C14.3802 14.4303 13.8992 14.5045 11.8831 14.5045C10.302 14.5045 9.30452 14.3949 9.10825 14.1986C8.94025 14.0306 8.78197 13.1994 8.75721 12.3514L8.71211 10.8101L8.4203 14.3772L7.40164 14.532C6.53153 14.6646 6.49441 14.6929 7.14698 14.7274C8.50783 14.799 8.57328 14.9502 8.49369 17.8372L8.42118 20.4909L4.85408 20.7703L8.42118 21.0002V26.35L5.36522 26.5781L8.42118 26.8593L8.49457 29.3715C8.55647 31.4849 8.49988 31.9331 8.13999 32.1959C7.74561 32.4842 7.74561 32.5213 8.13026 32.669C8.38846 32.768 8.56176 33.1491 8.583 33.6655C8.61218 34.365 8.63694 34.3977 8.73509 33.8645C8.94819 32.7035 9.22497 32.5912 11.8635 32.5912C13.8981 32.5912 14.38 32.6646 14.5066 32.9944C14.8081 33.7805 14.6746 37.6118 14.3359 37.8932C14.1573 38.0417 13.441 38.2071 12.7443 38.2602L11.4771 38.3583L12.9149 38.4043C14.5366 38.4565 14.6374 38.5705 14.7046 40.4451C14.7462 41.5876 14.7533 41.5743 14.8956 40.1056L15.0433 38.5776L17.5695 38.5042C19.4194 38.4503 20.1515 38.5183 20.3036 38.7589C20.4177 38.9392 20.5141 40.0764 20.5158 41.2851C20.5194 43.2782 20.4663 43.5196 19.9464 43.8822C19.4857 44.2041 19.4574 44.2846 19.8022 44.2952C20.0384 44.3031 20.3116 44.5649 20.4115 44.8779L20.5919 45.4473L20.8023 44.8779C21.0004 44.3411 21.1569 44.3093 23.5409 44.3093C26.383 44.3093 26.3492 44.2854 26.4219 46.3042C26.4635 47.4466 26.4705 47.4334 26.6129 45.9655L26.7606 44.4366L31.9564 44.2916L32.0952 45.1281C32.1713 45.5879 32.2703 46.3661 32.3154 46.8559C32.3684 47.4289 32.4374 47.1557 32.509 46.092L32.6205 44.4366H37.7155L37.8712 45.4553C37.956 46.0159 38.0418 46.2087 38.0622 45.8842C38.1426 44.571 38.5078 44.3111 40.3365 44.2686L42.0466 44.2288L40.348 44.0776C39.4133 43.9945 38.5538 43.8318 38.438 43.7151C38.0923 43.3685 38.0144 39.59 38.3407 38.9808C38.6157 38.4671 38.7979 38.4362 41.1058 38.5042L43.5755 38.5767L43.7214 40.4876C43.8646 42.3701 43.8673 42.3764 43.9124 40.9164C43.9743 38.9207 44.2563 38.4565 45.4315 38.4203L46.3776 38.3911L45.3961 38.201C44.8559 38.0967 44.3138 37.8517 44.1909 37.6572C43.8443 37.109 43.9106 33.5153 44.2767 33.03C44.5013 32.7329 45.0849 32.5826 46.2512 32.5207L47.9065 32.4331L46.1964 32.3845C44.1105 32.3244 43.9584 32.1263 43.9584 29.4718C43.9584 27.0968 44.1892 26.7785 45.9966 26.6617L47.3972 26.5715L45.9417 26.5238C44.1423 26.4654 43.9584 26.1957 43.9584 23.6129C43.9584 21.741 44.1998 21.0724 44.977 20.7949C45.283 20.6852 45.2724 20.6543 44.9222 20.6384C44.3943 20.6136 43.9716 19.8885 43.9195 18.9158C43.8947 18.4516 43.8275 18.6028 43.7285 19.3447L43.5755 20.4907L41.1058 20.5632C38.8227 20.6304 38.6149 20.5959 38.3514 20.1034C38.0587 19.5569 38.1622 15.3743 38.4761 15.0606C38.5654 14.9713 39.2339 14.8254 39.9607 14.737L41.2818 14.576L39.9536 14.5398C38.4168 14.4982 38.1232 14.1702 38.0552 12.4193C38.018 11.4608 37.9933 11.5156 37.8642 12.8482L37.7156 14.3762H32.6205V11.5855C32.6205 8.82588 32.6276 8.79305 33.2572 8.61717C33.8452 8.45358 33.8514 8.43855 33.3332 8.41467C33.0246 8.40053 32.6594 8.1883 32.5206 7.94338C32.281 7.51982 32.2509 7.5207 31.9299 7.9531C31.6399 8.34571 31.2561 8.39878 29.1764 8.3351L26.7606 8.26082L26.6112 6.86017C26.4785 5.61604 26.4573 5.57447 26.4202 6.49321C26.3494 8.26259 26.0833 8.41998 23.3174 8.33598L20.9016 8.2617L20.7539 6.60639L20.6079 4.95556ZM24.573 8.67727C25.5677 8.68346 25.8507 8.78514 26.0567 9.06635C26.4882 9.65703 26.4953 13.7775 26.0647 14.2074C25.8489 14.4231 24.9939 14.4992 23.3261 14.4497L20.9015 14.378V8.77363L23.3182 8.69935C23.831 8.68344 24.2414 8.6755 24.573 8.67727ZM30.432 8.67727C31.4268 8.68346 31.7098 8.78514 31.9158 9.06635C32.312 9.6075 32.3518 13.3071 31.9689 14.0218C31.7257 14.4763 31.4684 14.5169 29.2303 14.4506L26.7606 14.3781V8.7737L29.1773 8.69942C29.6902 8.68351 30.1004 8.6755 30.432 8.67727ZM18.469 8.68699C19.401 8.69849 19.9908 8.77807 20.1641 8.92133C20.4205 9.13355 20.5196 9.84891 20.5196 11.4582C20.5196 12.6909 20.4488 13.8838 20.3613 14.1101C20.2278 14.4585 19.8069 14.5107 17.6227 14.4497L15.0425 14.378V8.77364L17.4246 8.70025C17.8092 8.68876 18.1577 8.68434 18.468 8.68787L18.469 8.68699ZM17.6767 14.7468C18.828 14.7354 19.9872 14.8379 20.2136 15.0652C20.6345 15.4861 20.6283 19.8986 20.2056 20.3212C19.9899 20.5369 19.1348 20.613 17.467 20.5635L15.0424 20.4918L14.969 17.9823C14.9213 16.3509 14.9991 15.3481 15.1919 15.1165C15.3837 14.8857 16.5253 14.7602 17.6767 14.7487V14.7468ZM11.6895 14.7592C13.1857 14.7592 14.161 14.8715 14.3545 15.0652C14.5473 15.258 14.6605 16.2253 14.6605 17.6888C14.6605 19.1522 14.5482 20.1195 14.3545 20.3124C14.1609 20.506 13.1847 20.6183 11.6895 20.6183C8.859 20.6183 8.8015 20.5609 8.8015 17.6889C8.8015 14.817 8.85898 14.7595 11.6895 14.7595V14.7592ZM23.5985 14.7592C25.565 14.7592 25.8843 14.822 26.115 15.2518C26.4598 15.8955 26.4554 19.4882 26.1097 20.1345C25.8665 20.589 25.6092 20.6297 23.3711 20.5634L20.9014 20.4908L20.828 17.9813C20.7803 16.3499 20.8581 15.3471 21.0509 15.1155C21.2631 14.86 21.9802 14.7601 23.5984 14.7601L23.5985 14.7592ZM29.4901 14.7628C31.4266 14.7592 31.7441 14.822 31.9741 15.2518C32.3189 15.8955 32.3154 19.4882 31.9696 20.1345C31.7265 20.589 31.4692 20.6297 29.231 20.5634L26.7614 20.4909L26.6889 17.8371C26.6349 15.8856 26.7021 15.1287 26.9435 14.9756C27.1239 14.8616 28.2699 14.7661 29.4911 14.7643L29.4901 14.7628ZM35.0388 14.7681C36.0761 14.7548 37.1407 14.7999 37.4379 14.914C37.7686 15.0413 37.8411 15.5338 37.8411 17.6736C37.8411 19.1061 37.7606 20.359 37.6625 20.4573C37.5643 20.5554 36.3892 20.6032 35.0513 20.5634L32.6188 20.4917L32.5463 17.838C32.4923 15.8865 32.5595 15.1295 32.8009 14.9765C32.9911 14.8563 34.0009 14.7829 35.039 14.7696L35.0388 14.7681ZM11.689 20.873C13.1852 20.873 14.1605 20.9853 14.3541 21.1789C14.5442 21.369 14.66 22.3108 14.66 23.6751C14.66 25.0394 14.5451 25.9813 14.3541 26.1712C14.1604 26.3649 13.1842 26.4772 11.689 26.4772C8.87439 26.4772 8.80105 26.4065 8.80105 23.675C8.80105 20.9435 8.87356 20.873 11.689 20.873ZM24.5725 20.9048C25.5673 20.911 25.8503 21.0127 26.0563 21.2939C26.4507 21.8333 26.4896 25.2836 26.1094 25.9937C25.8662 26.4482 25.6089 26.4889 23.3708 26.4226L20.9011 26.3501V21.0003L23.3178 20.9261C23.8306 20.9101 24.2409 20.9022 24.5725 20.9039L24.5725 20.9048ZM30.4316 20.9048C31.4264 20.911 31.7093 21.0127 31.9154 21.2939C32.3097 21.8333 32.3487 25.2836 31.9684 25.9937C31.7253 26.4482 31.4679 26.4889 29.2298 26.4226L26.7602 26.3501V21.0003L29.1769 20.9261C29.6897 20.9101 30.1 20.9022 30.4316 20.9039L30.4316 20.9048ZM40.1222 20.9057C40.4016 20.9083 40.7199 20.9172 41.0842 20.9278L43.5724 21.0012L43.6467 23.4018C43.6874 24.722 43.6618 25.9546 43.591 26.1404C43.4964 26.388 42.8129 26.4782 41.0258 26.4782C38.1786 26.4782 38.1573 26.457 38.1573 23.676C38.1573 21.2097 38.1697 20.8905 40.123 20.9066L40.1222 20.9057ZM18.4688 20.9145C19.4008 20.926 19.9906 21.0056 20.1639 21.1489C20.6254 21.5326 20.6679 25.7179 20.2143 26.1715C19.865 26.5208 15.7496 26.5942 15.2244 26.2608C14.9839 26.1087 14.9158 25.3757 14.9698 23.5268L15.0432 21.0005L17.4252 20.9271C17.8099 20.9156 18.1584 20.911 18.4688 20.9145ZM32.6194 21.0003H37.7145L37.7888 23.4009C37.8295 24.7211 37.8029 25.9573 37.7295 26.1484C37.627 26.4154 37.0239 26.4782 35.1087 26.4225L32.6204 26.35V23.6752L32.6194 21.0003ZM38.6005 26.7134L41.086 26.7868L43.5724 26.8593L43.6458 29.3855C43.6998 31.2354 43.6317 31.9675 43.3912 32.1196C42.9384 32.407 39.0734 32.3822 38.611 32.0895C38.1361 31.7889 37.9328 28.4455 38.3271 27.4225L38.6005 26.7134ZM11.69 26.7319C13.1861 26.7319 14.1614 26.8442 14.355 27.0379C14.5451 27.228 14.6609 28.1697 14.6609 29.534C14.6609 30.8984 14.546 31.8403 14.355 32.0302C14.1613 32.2238 13.1851 32.3362 11.69 32.3362C8.8753 32.3362 8.80196 32.2654 8.80196 29.534C8.80196 26.8026 8.87447 26.7319 11.69 26.7319ZM24.5734 26.7638C25.5682 26.77 25.8512 26.8716 26.0572 27.1528C26.4489 27.6887 26.4923 31.1408 26.1156 31.8439C25.8857 32.2736 25.5682 32.3364 23.6316 32.3329C22.4105 32.3302 21.2636 32.2356 21.0832 32.1206C20.8427 31.9685 20.7746 31.2355 20.8285 29.3866L20.9019 26.8603L23.3186 26.786C23.8315 26.7701 24.2418 26.762 24.5734 26.7638ZM30.4325 26.7638C31.4273 26.77 31.7102 26.8716 31.9163 27.1528C32.2991 27.6763 32.3496 30.7394 31.9905 31.6829C31.75 32.316 31.6731 32.3364 29.5066 32.3328C28.2775 32.3302 27.1236 32.2356 26.9432 32.1206C26.7027 31.9685 26.6346 31.2355 26.6886 29.3865L26.762 26.8603L29.1787 26.786C29.6915 26.7701 30.1018 26.7621 30.4334 26.7639L30.4325 26.7638ZM18.4694 26.7735C19.4014 26.785 19.9912 26.8646 20.1645 27.0078C20.6261 27.3916 20.6686 31.5768 20.2149 32.0305C19.7613 32.4841 15.5762 32.4416 15.1932 31.9792C15.0022 31.7493 14.9235 30.7784 14.9704 29.2406L15.0438 26.8585L17.4258 26.7851C17.8105 26.7736 18.1589 26.7692 18.4693 26.7728L18.4694 26.7735ZM32.6201 26.8593H37.7152L37.7886 29.3855C37.8425 31.2354 37.7744 31.9675 37.5339 32.1196C37.3535 32.2337 36.2889 32.3274 35.1677 32.3274C34.0465 32.3274 32.9827 32.2337 32.8024 32.1196C32.5619 31.9675 32.4938 31.2344 32.5477 29.3855L32.6201 26.8593ZM30.5978 32.6192C31.635 32.6227 31.7889 32.7377 31.995 33.1223C32.4238 33.9235 32.2169 37.6363 31.7261 37.9467C31.261 38.2411 27.3969 38.2668 26.9423 37.9785C26.7018 37.8264 26.6337 37.0934 26.6877 35.2444L26.761 32.7182L29.2307 32.6457C29.8072 32.6289 30.2521 32.6183 30.5978 32.6192ZM39.7365 32.6192C40.0822 32.6183 40.527 32.628 41.1036 32.6457L43.5732 32.7182L43.6466 35.2445C43.7006 37.0943 43.6325 37.8264 43.392 37.9785C42.9375 38.2668 39.0733 38.2412 38.6081 37.9467C38.1174 37.6363 37.9105 33.9235 38.3402 33.1224C38.5462 32.7377 38.6993 32.6236 39.7365 32.6192ZM18.4695 32.6324C19.4015 32.6439 19.9913 32.7235 20.1646 32.8668C20.6961 33.308 20.6607 37.2545 20.1204 37.7948C19.5801 38.3351 15.6347 38.3705 15.1933 37.8381C15.0023 37.6082 14.9236 36.6373 14.9705 35.0995L15.0439 32.7175L17.4259 32.6441C17.8106 32.6326 18.159 32.6282 18.4693 32.6317L18.4695 32.6324ZM24.3286 32.6324C25.2606 32.6439 25.8504 32.7235 26.0237 32.8668C26.5551 33.308 26.5198 37.2545 25.9795 37.7948C25.4392 38.3351 21.4938 38.3705 21.0524 37.8381C20.8614 37.6082 20.7827 36.6373 20.8295 35.0995L20.9029 32.7175L23.285 32.6441C23.6696 32.6326 24.018 32.6282 24.3284 32.6317L24.3286 32.6324ZM32.6202 32.7182H37.7153L37.7887 35.2445C37.8426 37.0943 37.7745 37.8264 37.534 37.9785C37.3536 38.0926 36.289 38.1863 35.1678 38.1863C34.0466 38.1863 32.9828 38.0926 32.8025 37.9785C32.562 37.8265 32.4939 37.0934 32.5478 35.2445L32.6202 32.7182ZM30.1408 38.4836C32.1109 38.4783 32.2258 38.8329 32.286 40.9824L32.3329 42.6537L32.477 40.6155L32.6202 38.5773H37.7153L37.7887 41.1035C37.8426 42.9534 37.7746 43.6855 37.534 43.8376C37.1529 44.079 33.4923 44.1276 32.8962 43.8986C32.6743 43.8137 32.493 43.5626 32.493 43.3416C32.493 43.025 32.3825 43.0577 31.974 43.4963C31.5203 43.9835 31.1896 44.0534 29.3628 44.0498C28.2124 44.0472 27.123 43.9526 26.9427 43.8376C26.7022 43.6855 26.6341 42.9525 26.6881 41.1036L26.7614 38.5773L29.1782 38.503C29.5407 38.4915 29.8599 38.4836 30.1411 38.4827L30.1408 38.4836ZM24.3286 38.4915C25.2606 38.503 25.8504 38.5826 26.0237 38.7259C26.5551 39.1671 26.5198 43.1135 25.9795 43.6539C25.6797 43.9536 25.0537 44.0536 23.4956 44.05C22.3496 44.0474 21.2646 43.9528 21.0843 43.8378C20.8438 43.6857 20.7757 42.9527 20.8296 41.1037L20.903 38.5775L23.2851 38.5041C23.6697 38.4926 24.0182 38.488 24.3286 38.4915ZM64.9027 61.0443L60.958 64.9978L64.7168 68.7664C66.0273 67.455 67.3386 66.1437 68.6509 64.8332L64.9027 61.0443ZM71.1746 66.646L66.8816 71.32L68.3105 73.0929H77.9515L71.1746 66.646ZM81.2614 76.1498L71.4673 76.3479L74.9185 79.9715L84.7125 79.7735L81.2614 76.1498ZM77.7216 83.0275L81.2604 86.5937H91.7044L88.1656 83.0275H77.7216ZM94.6019 89.6506L84.7123 89.8663C84.7123 90.1528 90.2857 95.3433 91.0001 95.7227C91.3061 95.8854 91.5926 96.0092 91.6368 95.9986C93.0976 95.6334 95.9201 92.7808 95.9201 91.6702C95.8883 90.9177 95.0164 90.2439 94.6008 89.6515L94.6019 89.6506Z" fill="#3B4650"/>
</g>
<path id="Vector 1" d="M98.6383 55.8562L16.6367 56.026L24.8708 67.9103L16.6367 80.1341H98.6383L90.574 67.9103L98.6383 55.8562Z" fill="#3B4650"/>
<g id="MPR">
<path d="M42.5655 58.2329H49.9077V58.7554H48.3953V76.9596H49.9077V77.4821H41.5205V76.9596H43.033V59.7728H42.923L38.7982 77.4821H35.3608L30.521 59.6904H30.411V76.9596H31.9234V77.4821H28.1836V76.9596H29.696V58.7554H28.1836V58.2329H35.6083L39.2656 72.3948L42.5655 58.2329Z" fill="white"/>
<path d="M51.0033 58.2329H59.088C61.8562 58.2329 63.9186 58.6362 65.2753 59.4429C66.6319 60.2312 67.3102 61.6519 67.3102 63.7052C67.3102 65.9784 66.4852 67.5459 64.8353 68.4075C63.2953 69.1958 61.1413 69.5899 58.373 69.5899H58.153V76.9596H61.5904V77.4821H51.0033V76.9596H52.7908V58.7554H51.0033V58.2329ZM58.153 58.7554V69.0675H58.7305C59.8305 69.0675 60.5913 68.6916 61.0129 67.94C61.4346 67.1884 61.6454 65.9693 61.6454 64.2827V62.9627C61.6454 61.4044 61.4437 60.3137 61.0404 59.6904C60.6554 59.067 59.9405 58.7554 58.8955 58.7554H58.153Z" fill="white"/>
<path d="M77.039 67.7475H75.5815V76.9596H77.3689V77.4821H68.4318V76.9596H70.2192V58.7554H68.4318V58.2329H76.7365C79.1197 58.2329 80.8063 58.3612 81.7963 58.6179C82.8046 58.8562 83.5104 59.1495 83.9137 59.4979C84.7936 60.2128 85.2336 61.3494 85.2336 62.9077C85.2336 64.466 84.8486 65.5843 84.0787 66.2626C83.3087 66.9225 82.1354 67.3167 80.5588 67.445V67.5275C82.0438 67.7292 83.0795 68.1692 83.6662 68.8475C84.2528 69.5258 84.5462 70.6624 84.5462 72.2573V73.7148C84.5462 74.6681 84.592 75.3097 84.6836 75.6397C84.7936 75.9697 85.0136 76.1347 85.3436 76.1347C85.6736 76.1347 85.9303 75.988 86.1136 75.6947C86.3152 75.383 86.4986 74.7414 86.6636 73.7698L87.131 73.8248C86.9294 75.383 86.5719 76.428 86.0586 76.9596C85.5636 77.4913 84.5645 77.7571 83.0612 77.7571C81.5579 77.7571 80.4855 77.4088 79.8438 76.7121C79.2205 75.9972 78.9089 74.6681 78.9089 72.7248V70.7174C78.9089 69.6908 78.7714 68.9391 78.4964 68.4625C78.2397 67.9858 77.7539 67.7475 77.039 67.7475ZM75.5815 58.7554V67.225H76.4615C77.5064 67.225 78.2764 66.9042 78.7714 66.2626C79.2847 65.6209 79.5414 64.576 79.5414 63.1277V62.3302C79.5414 60.882 79.2939 59.9287 78.7989 59.4704C78.3222 58.9937 77.5523 58.7554 76.489 58.7554H75.5815Z" fill="white"/>
</g>
</g>
</svg>
