<svg width="20" height="21" viewBox="0 0 20 21" fill="none" xmlns="http://www.w3.org/2000/svg">
<g id="sms-notification">
<path id="Vector" d="M16.2513 7.08268C17.4019 7.08268 18.3346 6.14994 18.3346 4.99935C18.3346 3.84876 17.4019 2.91602 16.2513 2.91602C15.1007 2.91602 14.168 3.84876 14.168 4.99935C14.168 6.14994 15.1007 7.08268 16.2513 7.08268Z" fill="#3B2273"/>
<path id="Vector_2" d="M16.2513 7.08268C17.4019 7.08268 18.3346 6.14994 18.3346 4.99935C18.3346 3.84876 17.4019 2.91602 16.2513 2.91602C15.1007 2.91602 14.168 3.84876 14.168 4.99935C14.168 6.14994 15.1007 7.08268 16.2513 7.08268Z" fill="#3B2273"/>
<path id="Vector_3" d="M17.266 8.1737C16.6827 8.35703 16.041 8.39036 15.3744 8.2237C14.2577 7.93203 13.3493 7.04036 13.041 5.9237C12.891 5.38203 12.8827 4.8487 12.9743 4.36536C13.0827 3.83203 12.7077 3.33203 12.1743 3.33203H5.83268C3.33268 3.33203 1.66602 4.58203 1.66602 7.4987V13.332C1.66602 16.2487 3.33268 17.4987 5.83268 17.4987H14.166C16.666 17.4987 18.3327 16.2487 18.3327 13.332V8.96536C18.3327 8.41536 17.7993 7.9987 17.266 8.1737ZM12.9327 9.70703L11.9493 10.4904C11.3993 10.932 10.6993 11.1487 9.99935 11.1487C9.29935 11.1487 8.59102 10.932 8.04935 10.4904L5.44102 8.40703C5.17435 8.19036 5.13268 7.79036 5.34102 7.5237C5.55768 7.25703 5.94935 7.20703 6.21602 7.4237L8.82435 9.50703C9.45768 10.0154 10.5327 10.0154 11.166 9.50703L12.1493 8.7237C12.416 8.50703 12.816 8.5487 13.0243 8.8237C13.241 9.09036 13.1994 9.49036 12.9327 9.70703Z" fill="#3B2273"/>
</g>
</svg>
