<svg width="18" height="18" viewBox="0 0 18 18" fill="none" xmlns="http://www.w3.org/2000/svg">
<path id="Vector" d="M16.9153 10.8206C16.543 10.2413 16.1705 9.68263 15.7982 9.10337C15.7155 8.97925 15.7155 8.89641 15.7982 8.7723C16.1705 8.21365 16.5224 7.65515 16.8947 7.0965C17.3293 6.43437 17.1017 5.79303 16.3568 5.52414C15.7361 5.29655 15.1154 5.04832 14.4949 4.82074C14.3708 4.77932 14.3087 4.69663 14.3087 4.55173C14.2881 3.86898 14.2466 3.1862 14.2052 2.52421C14.1638 1.80001 13.6053 1.38626 12.9018 1.57242C12.2396 1.73796 11.5776 1.92413 10.9363 2.11031C10.7914 2.15173 10.7087 2.11031 10.6052 2.00683C10.1915 1.46895 9.75694 0.951712 9.34319 0.434477C8.88802 -0.144826 8.18462 -0.144826 7.7088 0.434477C7.29505 0.951712 6.86049 1.46895 6.46736 1.98618C6.36388 2.13108 6.26041 2.15172 6.09502 2.1103C5.45369 1.92412 4.81232 1.7586 4.35715 1.63448C3.46758 1.42752 2.92955 1.77937 2.88813 2.52405C2.84671 3.2068 2.80544 3.88958 2.78465 4.59299C2.78465 4.73788 2.7226 4.79994 2.59848 4.86199C1.95715 5.11022 1.31578 5.35858 0.674443 5.60681C0.0123082 5.87582 -0.194512 6.51718 0.198623 7.1171C0.570959 7.6964 0.943442 8.25505 1.31578 8.83432C1.39847 8.95843 1.39847 9.04127 1.31578 9.18602C0.922641 9.76532 0.550306 10.3446 0.177823 10.9447C-0.173878 11.5033 0.0537089 12.1653 0.674406 12.4137C1.31574 12.6619 1.97787 12.9103 2.61925 13.1585C2.76414 13.2 2.80542 13.2826 2.80542 13.4275C2.82605 14.0897 2.90889 14.731 2.90889 15.393C2.90889 16.0551 3.4882 16.655 4.29508 16.4068C4.93642 16.1999 5.57779 16.0551 6.21912 15.8689C6.34324 15.8275 6.42608 15.8483 6.50877 15.9724C6.94332 16.5103 7.35707 17.0275 7.79147 17.5655C8.26729 18.1448 8.95004 18.1448 9.40525 17.5655C9.8398 17.0276 10.2535 16.5104 10.688 15.9724C10.7706 15.8689 10.8328 15.8275 10.9776 15.8689C11.6397 16.0551 12.3017 16.2206 12.9639 16.4068C13.6466 16.593 14.2259 16.1792 14.2466 15.4758C14.288 14.7931 14.3293 14.1103 14.35 13.4069C14.35 13.2414 14.4327 13.1793 14.557 13.1379C15.1777 12.9103 15.819 12.6621 16.4398 12.4137C17.1016 12.0826 17.3086 11.4206 16.9154 10.8206L16.9153 10.8206ZM11.9706 7.42753L7.8327 11.5654C7.72923 11.6689 7.58448 11.7516 7.43957 11.7724C7.39815 11.7724 7.33609 11.793 7.29467 11.793C7.1085 11.793 6.90154 11.7103 6.75679 11.5654L5.06018 9.8688C4.77054 9.57916 4.77054 9.10333 5.06018 8.81368C5.34983 8.52403 5.82565 8.52403 6.1153 8.81368L7.27387 9.97225L10.8739 6.37226C11.1635 6.08261 11.6393 6.08261 11.929 6.37226C12.2602 6.66205 12.2602 7.13787 11.9706 7.42749L11.9706 7.42753Z" fill="#027333"/>
</svg>
